<?xml version="1.0" encoding="utf-8"?>
<!-- Generator: Adobe Illustrator 24.0.2, SVG Export Plug-In . SVG Version: 6.00 Build 0)  -->
<svg version="1.1" xmlns="http://www.w3.org/2000/svg" xmlns:xlink="http://www.w3.org/1999/xlink" x="0px" y="0px"
	 viewBox="0 0 4218 620" style="enable-background:new 0 0 4218 620;" xml:space="preserve">
<style type="text/css">
	.st0{fill:#FFFFFF;}
	.st1{fill:#FF5023;}
	.st2{fill:#1B73BA;}
	.st3{fill:#1C88C7;}
	.st4{fill:#B3B3B3;}
	.st5{fill:#A6120D;}
	.st6{fill:#DD1B16;}
	.st7{fill:#F2F2F2;}
	.st8{fill:#F0DB4F;}
	.st9{fill:#323330;}
	.st10{fill-rule:evenodd;clip-rule:evenodd;fill:#8993BE;}
	.st11{fill-rule:evenodd;clip-rule:evenodd;fill:#232531;}
	.st12{fill:#CF649A;}
	.st13{display:none;}
	.st14{display:inline;}
</style>
<g id="Capa_1">
	<g>
		<rect x="62.5" y="64.5" class="st0" width="406" height="456"/>
		<path class="st0" d="M468,65v455H63V65H468 M469,64H62v457h407V64L469,64z"/>
	</g>
	<path class="st1" d="M272.34,620.29l224.05-62.78L546,0.14H0.26l49.62,557.36L272.34,620.29z M444.44,114.1l-6.2,67.83H177.01
		l5.8,70.15h249.62l-19.4,210.85L273.9,501.29v0.39h-1.56l-140.3-38.75l-8.52-107.76h67.83l5.04,54.26l75.96,20.53l76.35-20.53
		l8.55-88.36H120.03L101.82,114.1H444.44z"/>
</g>
<g id="Capa_2">
	<g>
		<path class="st2" d="M1424.25,556.91L1378.79,1.34l542.91,1.12l-48.07,554.46L1652.29,621L1424.25,556.91z"/>
		<path class="st3" d="M1652.29,567.34V54.25l223.57,0.74L1836,514.06L1652.29,567.34z"/>
		<path class="st0" d="M1820.34,119.83h-343.93l9.32,67.07h163.21l-160.6,68.94l9.31,64.83h236.62l-8.57,90.54l-80.11,15.65
			l-72.66-18.63l-5.59-51.42h-66.7l8.94,106.94l143.09,39.87l137.13-43.59l17.51-209.04h-144.96l157.99-65.58L1820.34,119.83z"/>
	</g>
</g>
<g id="Capa_3">
	<g>
		<path class="st4" d="M961.63,2.2l-276.6,102.43l43.71,381.32l233.18,134.86l234.38-136.68L1240,102.81L961.63,2.2z"/>
		<path class="st5" d="M1212.41,124.85L960.99,34.63v553.96l210.71-122.71L1212.41,124.85L1212.41,124.85z"/>
		<path class="st6" d="M716.07,126.48l37.46,341.03l207.45,121.08V34.62L716.07,126.48L716.07,126.48z"/>
		<path class="st7" d="M1030.2,329.53l-69.21,34.06h-72.95l-34.29,90.25l-63.78,1.24L960.99,54.75L1030.2,329.53L1030.2,329.53z
			 M1023.5,312.38L961.45,183.1l-50.91,127.05h50.44L1023.5,312.38L1023.5,312.38z"/>
		<path class="st4" d="M960.98,54.75l0.46,128.36l57.76,127.15h-58.09l-0.13,53.24l80.32,0.08l37.54,91.51l61.03,1.19L960.98,54.75
			L960.98,54.75z"/>
	</g>
</g>
<g id="Capa_4">
	<g>
		<path class="st8" d="M3596.86,0H4218v620h-621.14V0z"/>
		<path class="st9" d="M4167.16,472.13c-4.55-28.29-23.03-52.04-77.76-74.2c-19.01-8.72-40.21-14.97-46.53-29.35
			c-2.24-8.37-2.54-13.08-1.12-18.15c4.07-16.44,23.74-21.57,39.32-16.86c10.04,3.36,19.54,11.08,25.27,23.4
			c26.81-17.33,26.75-17.21,45.46-29.11c-6.85-10.61-10.51-15.5-15-20.04c-16.12-17.98-38.08-27.23-73.21-26.52
			c-6.08,0.77-12.22,1.59-18.3,2.36c-17.54,4.42-34.25,13.61-44.05,25.93c-29.4,33.3-21.02,91.58,14.76,115.57
			c35.25,26.4,87.03,32.41,93.64,57.11c6.44,30.23-22.26,40.02-50.78,36.54c-21.02-4.36-32.71-15.03-45.35-34.42
			c-23.26,13.44-23.26,13.44-47.18,27.17c5.67,12.38,11.63,17.98,21.14,28.7c44.99,45.56,157.59,43.32,177.78-25.64
			C4166.1,512.27,4171.53,496.47,4167.16,472.13z M3934.53,284.95h-58.1c0,50.1-0.24,99.84-0.24,149.93
			c0,31.88,1.65,61.12-3.54,70.07c-8.5,17.62-30.53,15.44-40.56,12.02c-10.21-5.01-15.41-12.14-21.43-22.22
			c-1.65-2.89-2.89-5.13-3.31-5.3c-15.76,9.61-31.47,19.27-47.24,28.88c7.85,16.09,19.43,30.06,34.25,39.13
			c22.14,13.26,51.9,17.33,83.02,10.2c20.25-5.89,37.73-18.09,46.88-36.66c13.23-24.34,10.39-53.81,10.27-86.4
			C3934.82,391.45,3934.53,338.29,3934.53,284.95L3934.53,284.95z"/>
	</g>
</g>
<g id="Capa_5">
	<g>
		<ellipse class="st10" cx="3157.93" cy="310.09" rx="300.07" ry="156.2"/>
		<path class="st11" d="M2942.12,402.58l32.89-166.48h76.04c32.88,2.06,49.33,18.5,49.33,47.27c0,49.33-39.05,78.1-73.99,76.04
			h-36.99l-8.22,43.16H2942.12z M2997.62,328.59l10.28-61.66h26.72c14.39,0,24.66,6.17,24.66,18.5
			c-2.05,34.94-18.5,41.11-36.99,43.16H2997.62L2997.62,328.59z M3092.74,359.42l32.88-166.48h39.05l-8.22,43.16h36.99
			c32.89,2.06,45.22,18.5,41.11,39.05l-14.39,84.27h-41.1l14.39-76.04c2.05-10.28,2.05-16.44-12.33-16.44h-30.83l-18.5,92.49
			H3092.74z M3217.53,402.58l32.88-166.48h76.04c32.89,2.06,49.33,18.5,49.33,47.27c0,49.33-39.05,78.1-73.99,76.04h-37l-8.22,43.16
			H3217.53z M3273.02,328.59l10.28-61.66h26.72c14.39,0,24.66,6.17,24.66,18.5c-2.05,34.94-18.5,41.11-36.99,43.16H3273.02
			L3273.02,328.59z"/>
	</g>
</g>
<g id="Capa_6">
	<path class="st12" d="M2627.31,348.08c-23.04,0.13-42.99,5.66-59.72,13.9c-6.18-12.23-12.36-22.91-13.38-30.89
		c-1.16-9.27-2.57-14.93-1.16-26c1.41-11.07,7.85-26.77,7.85-28.06c-0.13-1.16-1.42-6.82-14.67-6.95c-13.26-0.13-24.71,2.57-26,6.05
		s-3.86,11.45-5.53,19.69c-2.32,12.1-26.51,54.96-40.29,77.48c-4.5-8.75-8.37-16.47-9.14-22.65c-1.16-9.27-2.57-14.93-1.16-26
		c1.42-11.07,7.85-26.77,7.85-28.06c-0.13-1.16-1.42-6.82-14.67-6.95c-13.26-0.13-24.71,2.57-26,6.05
		c-1.29,3.48-2.7,11.71-5.53,19.69c-2.7,7.98-34.88,79.54-43.25,98.2c-4.25,9.52-7.98,17.12-10.68,22.27
		c-2.7,5.15-0.13,0.39-0.39,0.9c-2.32,4.38-3.6,6.82-3.6,6.82v0.13c-1.8,3.22-3.73,6.31-4.63,6.31c-0.64,0-1.93-8.62,0.26-20.46
		c4.76-24.84,16.35-63.58,16.22-65c0-0.64,2.19-7.47-7.47-10.94c-9.4-3.48-12.74,2.32-13.51,2.32c-0.77,0-1.42,2.06-1.42,2.06
		s10.43-43.63-19.95-43.63c-19.05,0-45.3,20.72-58.3,39.64c-8.24,4.5-25.74,14.03-44.28,24.2c-7.08,3.86-14.42,7.98-21.37,11.71
		l-1.41-1.55c-36.81-39.26-104.9-67.06-102.06-119.83c1.03-19.18,7.72-69.76,130.77-131.02c100.78-50.2,181.48-36.42,195.5-5.79
		c19.95,43.76-43.12,125.1-147.88,136.82c-39.9,4.5-60.88-10.94-66.16-16.73c-5.53-6.05-6.31-6.31-8.37-5.15
		c-3.35,1.8-1.29,7.21,0,10.43c3.09,8.11,15.96,22.52,37.84,29.73c19.18,6.31,66.03,9.78,122.66-12.1
		c63.45-24.58,113-92.8,98.46-149.81c-14.8-58.05-111.07-77.1-202.07-44.79c-54.19,19.31-112.88,49.42-155.09,88.94
		c-50.2,46.85-58.18,87.78-54.83,104.77c11.71,60.62,95.24,100.13,128.71,129.35c-1.67,0.9-3.22,1.8-4.63,2.57
		c-16.73,8.24-80.44,41.57-96.4,76.84c-18.02,39.9,2.83,68.6,16.73,72.46c42.99,11.97,87.01-9.52,110.82-44.92
		c23.68-35.39,20.85-81.34,9.91-102.32l-0.39-0.77l13.13-7.72c8.5-5.02,16.86-9.65,24.2-13.64c-4.12,11.2-7.08,24.45-8.62,43.76
		c-1.8,22.65,7.47,52,19.69,63.58c5.41,5.02,11.84,5.15,15.83,5.15c14.16,0,20.59-11.71,27.67-25.74
		c8.75-17.12,16.47-36.94,16.47-36.94s-9.65,53.67,16.73,53.67c9.65,0,19.31-12.48,23.68-18.92v0.13c0,0,0.26-0.39,0.77-1.29
		c0.54-0.8,1.06-1.61,1.54-2.44v-0.26c3.86-6.69,12.48-22.01,25.36-47.36c16.6-32.69,32.56-73.62,32.56-73.62s1.54,10.04,6.31,26.51
		c2.83,9.78,9.01,20.46,13.77,30.89c-3.86,5.41-6.18,8.5-6.18,8.5l0.13,0.13c-3.09,4.12-6.56,8.5-10.17,12.87
		c-13.13,15.7-28.83,33.59-30.89,38.74c-2.45,6.05-1.93,10.55,2.83,14.16c3.48,2.57,9.65,3.09,16.22,2.57
		c11.84-0.77,20.08-3.73,24.2-5.54c6.44-2.32,13.77-5.79,20.85-10.94c12.87-9.52,20.72-23.04,19.95-41.06
		c-0.39-9.91-3.6-19.69-7.59-28.96c1.16-1.67,2.32-3.35,3.48-5.15c20.34-29.73,36.04-62.42,36.04-62.42s1.54,10.04,6.31,26.51
		c2.44,8.37,7.34,17.51,11.71,26.51c-19.05,15.57-31.02,33.59-35.14,45.43c-7.59,21.88-1.67,31.79,9.52,34.11
		c5.02,1.03,12.23-1.29,17.63-3.6c6.69-2.19,14.8-5.92,22.27-11.45c12.87-9.52,25.23-22.78,24.58-40.67
		c-0.39-8.24-2.57-16.35-5.53-24.07c16.22-6.69,37.2-10.55,63.84-7.34c57.27,6.69,68.6,42.47,66.41,57.4
		c-2.19,14.93-14.16,23.17-18.15,25.74c-3.99,2.45-5.28,3.35-4.89,5.15c0.51,2.7,2.32,2.57,5.79,2.06
		c4.76-0.77,30.12-12.23,31.15-39.77C2720.49,386.31,2686.9,347.7,2627.31,348.08L2627.31,348.08z M2185.59,497
		c-18.92,20.72-45.56,28.57-56.89,21.88c-12.23-7.08-7.47-37.58,15.83-59.59c14.16-13.39,32.56-25.74,44.66-33.34
		c2.7-1.67,6.82-4.12,11.71-7.08c0.77-0.51,1.29-0.77,1.29-0.77c0.9-0.51,1.93-1.16,2.96-1.8
		C2213.77,447.7,2205.54,475.25,2185.59,497L2185.59,497z M2323.95,402.91c-6.56,16.09-20.46,57.4-28.83,55.09
		c-7.21-1.93-11.58-33.21-1.42-64.1c5.15-15.57,16.09-34.11,22.52-41.32c10.43-11.58,21.75-15.44,24.58-10.68
		C2344.15,348.08,2328.07,392.87,2323.95,402.91z M2438.11,457.48c-2.83,1.42-5.41,2.45-6.56,1.67c-0.9-0.51,1.16-2.45,1.16-2.45
		s14.29-15.32,19.95-22.39c3.22-4.12,7.08-8.88,11.2-14.29v1.54C2463.85,440.11,2446.09,452.46,2438.11,457.48L2438.11,457.48z
		 M2526.14,437.41c-2.06-1.54-1.8-6.31,5.15-21.24c2.7-5.92,8.88-15.83,19.56-25.23c1.29,3.86,2.06,7.59,1.93,11.07
		C2552.66,425.18,2536.19,433.8,2526.14,437.41z"/>
</g>
<g id="Capa_7" class="st13">
	<rect x="546" class="st14" width="139" height="619"/>
	<rect x="1240" class="st14" width="139" height="619"/>
	<rect x="1921" class="st14" width="139" height="619"/>
	<rect x="2719" class="st14" width="139" height="619"/>
	<rect x="3458" class="st14" width="139" height="619"/>
</g>
</svg>
